# xmcd
#
# Track frame offsets:
#	150
#	13150
#	24656
#	33380
#	42662
#	51265
#	59093
#	70356
#	82536
#	94640
#	106469
#	119167
#	126167
#	135672
#	144299
#	154618
#	165016
#	174529
#	183108
#	194105
#	204769
#	214698
#	222624
#	232249
#	244075
#
# Disc length: 3396 seconds
#
# Revision: 1
# Processed by: cddbd v1.5.1PL0 Copyright (c) Steve Scherf et al.
# Submitted via: MusicWizard 7.0.2
#
DISCID=6e0d4219
DTITLE=Johnny Cash - The Greatest Hits - CD1
DYEAR=2001
DGENRE=Country
TTITLE0=Folsom Prison Blues
TTITLE1=Oh Lonesome Me
TTITLE2=Country Boy
TTITLE3=Life Goes On
TTITLE4=Always Alone
TTITLE5=Come In Stranger
TTITLE6=I Love You Because
TTITLE7=Doin' My Time
TTITLE8=So Doggone Lonesome
TTITLE9=Fool's Hall Of Fame
TTITLE10=Give My Love To Rose
TTITLE11=Leave That Junk Alone
TTITLE12=Blue Train
TTITLE13=Guess Things Happen That Way
TTITLE14=I Could Never Be Ashamed Of You
TTITLE15=The Way Of A Woman In Love
TTITLE16=I Could't Keep From Crying
TTITLE17=I Forgot To Remember To Forget
TTITLE18=I Just Thougt You'd Like To Know
TTITLE19=There You Go
TTITLE20=It's Just About Time
TTITLE21=You're My Baby
TTITLE22=Luther Played The Boogie
TTITLE23=Part Of Lonely Hearts
TTITLE24=Train Of Love
EXTD=YEAR: 2002 ID3G: 2
EXTT0=
EXTT1=
EXTT2=
EXTT3=
EXTT4=
EXTT5=
EXTT6=
EXTT7=
EXTT8=
EXTT9=
EXTT10=
EXTT11=
EXTT12=
EXTT13=
EXTT14=
EXTT15=
EXTT16=
EXTT17=
EXTT18=
EXTT19=
EXTT20=
EXTT21=
EXTT22=
EXTT23=
EXTT24=
PLAYORDER=
